# OBJ written from C:\Users\panta\Documents\GitHub\UnityTutorialsPracticeFile\Assets\Environment\Geometry\InvertedCubeRoom.obj
mtllib InvertedCubeRoom.mtl

g Main
v -7.5 0 -7.5
v -7.5 15 -7.5
v 7.5 15 -7.5
v 7.5 0 -7.5
v -7.5 0 7.5
v -7.5 15 7.5
v 7.5 15 7.5
v 7.5 0 7.5
vn 0 0 1
vn 1 0 0
vn -1 0 0
vn 0 1 0
vn 0 0 -1
vt 0.25 0
vt 0.25 0.333333
vt 0.5 0.333333
vt 0.5 0
vt 1 0.666667
vt 1 0.333333
vt 0.75 0.333333
vt 0.75 0.666667
vt 0.5 0.666667
vt 0.25 0.666667
vt 0 0.333333
vt 0 0.666667
vt 0.25 1
vt 0.5 1
usemtl Default
f 1/1/1 4/2/1 3/3/1 2/4/1
f 5/5/2 1/6/2 2/7/2 6/8/2
f 7/9/3 3/3/3 4/2/3 8/10/3
f 8/10/4 4/2/4 1/11/4 5/12/4
f 5/13/5 6/14/5 7/9/5 8/10/5

g Roof
v -7.5 15 -7.5
v 7.5 15 -7.5
v -7.5 15 7.5
v 7.5 15 7.5
vn 0 -1 0
vt 0.75 0.666667
vt 0.75 0.333333
vt 0.5 0.333333
vt 0.5 0.666667
usemtl Default
f 11/15/6 9/16/6 10/17/6 12/18/6
